<svg width="190" height="99" viewBox="0 0 190 99" fill="none" xmlns="http://www.w3.org/2000/svg">
<path fill-rule="evenodd" clip-rule="evenodd" d="M47.7845 0.490545C46.6585 0.908911 44.9678 4.01513 34.5223 24.8552C27.9383 37.9926 22.5509 49.0625 22.5509 49.456C22.5509 52.2607 25.6503 54.2582 28.2935 53.1564C29.6631 52.5852 30.4334 51.2754 36.4736 39.244C40.1413 31.9389 44.5554 23.1679 46.283 19.7534L49.4234 13.5446L59.0262 32.7015C68.6063 51.8143 69.8306 53.8072 71.9945 53.8072C74.121 53.8072 76.5221 51.5285 76.5221 49.5103C76.5221 48.6547 53.0331 2.15297 52.1464 1.25272C51.1228 0.213477 49.3602 -0.0944319 47.7845 0.490545ZM138.335 0.540252C137.443 0.980251 134.507 6.41395 125.348 24.5814C117.423 40.3016 113.5 48.5599 113.47 49.5853C113.437 50.7143 113.795 51.4848 114.831 52.5185C116.041 53.7257 116.47 53.8827 117.917 53.6484C118.841 53.4988 119.957 53.0073 120.397 52.5562C120.837 52.1052 125.495 43.1409 130.749 32.6357L140.301 13.5354L150.086 33.096C160.689 54.2932 160.642 54.2242 163.998 53.5959C165.654 53.2862 167.392 51.2155 167.395 49.548C167.396 49.1044 162.115 38.2034 155.66 25.3238C147.652 9.34712 143.528 1.59745 142.682 0.932387C141.275 -0.171751 140.011 -0.285895 138.335 0.540252ZM80.4384 1.88879C79.4347 3.07853 79.2483 3.6658 79.46 4.96785C79.8591 7.4219 81.0118 8.25495 84.6422 8.71336C90.3479 9.4341 94.1001 11.3478 97.5764 15.3092C100.343 18.4628 101.663 22.3473 101.663 27.3429C101.663 33.2304 100.364 36.4512 96.3576 40.4959C93.9308 42.9462 92.7153 43.7742 89.9807 44.8392C86.194 46.3143 85.2866 47.2588 85.2866 49.7266C85.2866 51.0572 85.5934 51.6818 86.706 52.6156C88.4096 54.0461 88.977 54.0746 92.397 52.9005C100.595 50.0861 106.914 43.1975 109.533 34.2208C110.788 29.9161 110.594 23.6213 109.065 19.0584C105.394 8.10169 95.4097 0.418287 84.8424 0.418287C81.85 0.418287 81.611 0.498374 80.4384 1.88879ZM1.29588 46.868C-1.0318 49.1904 -0.516071 50.5735 5.25885 57.492C8.73469 61.6558 16.972 69.6623 21.4055 73.1864C42.0949 89.6311 65.2984 98.1006 91.5334 98.7837C112.802 99.3373 129.518 95.7198 147.792 86.6078C162.472 79.2875 177.476 67.2502 186.938 55.2004C189.437 52.0173 190 50.9923 190 49.6244C190 47.0627 188.55 45.519 186.161 45.5374C183.94 45.554 183.505 45.8458 181.028 48.9746C165.308 68.8357 142.561 83.0206 118.038 88.2559C103.987 91.2558 88.3985 91.4441 74.4463 88.7824C57.3554 85.522 41.3107 78.2994 27.6551 67.7182C22.3885 63.6377 14.0372 55.4834 9.79566 50.2803C7.90482 47.9606 6.04027 45.9415 5.65187 45.7929C4.10561 45.201 2.59258 45.5743 1.29588 46.868Z" fill="#EAE8E8"/>
</svg>
